<svg width="24" height="24" viewBox="0 0 24 24" fill="none" xmlns="http://www.w3.org/2000/svg">
<path d="M9.87322 9.41739H7.70676V11.1488H9.73879C10.0905 11.1488 10.4001 11.0317 10.4001 10.224C10.4001 9.41739 9.87322 9.41739 9.87322 9.41739Z" fill="black"/>
<path d="M7.70676 14.4176H9.76339C10.0719 14.411 10.6582 14.3168 10.6582 13.4094C10.6582 12.3334 9.87322 12.3442 9.87322 12.3442H7.70676V14.4176Z" fill="black"/>
<path d="M14.1113 12.3442H16.5562C16.5562 12.3442 16.5706 11.1488 15.4208 11.1488C14.2709 11.1488 14.1113 12.3442 14.1113 12.3442Z" fill="black"/>
<path fill-rule="evenodd" clip-rule="evenodd" d="M12 24C18.6274 24 24 18.6274 24 12C24 5.37258 18.6274 0 12 0C5.37258 0 0 5.37258 0 12C0 18.6274 5.37258 24 12 24ZM11.9797 10.1045C11.9797 11.492 10.8442 11.5802 10.8442 11.5802C12.311 11.5802 12.2412 13.4298 12.2384 13.5043L12.2383 13.5067C12.2383 15.8742 9.87322 15.7967 9.87322 15.7967H6V8.0395H9.87322C11.0507 8.0395 11.9797 8.71524 11.9797 10.1045ZM12.5306 12.9929C12.5306 12.9929 12.5282 10.0121 15.3914 10.0121C18.4046 10.0121 17.9791 13.38 17.9791 13.38H14.1245C14.1245 14.8215 15.4352 14.7303 15.4352 14.7303C16.6714 14.7303 16.6282 13.8955 16.6282 13.8955H17.9377C17.9377 16.1106 15.3914 15.9582 15.3914 15.9582C12.3349 15.9582 12.5306 12.9929 12.5306 12.9929ZM13.7896 8.495H16.8605V9.4516H13.7896V8.495Z" fill="black"/>
</svg>
