<svg width="24" height="24" viewBox="0 0 24 24" fill="none" xmlns="http://www.w3.org/2000/svg">
<path d="M12.0005 0.47998C5.63807 0.47998 0.480469 5.63758 0.480469 12C0.480469 18.3624 5.63807 23.52 12.0005 23.52C18.3629 23.52 23.5205 18.3624 23.5205 12C23.5205 5.63758 18.3629 0.47998 12.0005 0.47998ZM11.3369 16.9452C10.6133 17.2968 9.83447 17.334 9.53327 17.334H9.37847C8.90807 17.334 6.56687 17.226 6.56687 15.0936C6.56687 12.9984 9.11687 12.834 9.89807 12.834H9.91847C9.46727 12.2316 9.56087 11.6244 9.56087 11.6244C9.50493 11.6277 9.4489 11.6293 9.39287 11.6292C9.09887 11.6292 8.53127 11.5824 8.04407 11.268C7.44647 10.884 7.14407 10.23 7.14407 9.32518C7.14407 6.76798 9.93647 6.66478 9.96407 6.66238H12.7529V6.72358C12.7529 7.03558 12.1925 7.09678 11.8109 7.14838C11.6813 7.16758 11.4209 7.19278 11.3477 7.22998C12.0545 7.60798 12.1685 8.20078 12.1685 9.08398C12.1685 10.0896 11.7749 10.6212 11.3573 10.9944C11.0981 11.226 10.8953 11.4072 10.8953 11.6508C10.8953 11.8896 11.1737 12.1332 11.4977 12.4176C12.0269 12.8844 12.7529 13.5192 12.7529 14.5908C12.7529 15.6984 12.2765 16.4904 11.3369 16.9452ZM17.4005 12H15.6005V13.8H14.4005V12H12.6005V10.8H14.4005V8.99998H15.6005V10.8H17.4005V12ZM9.86807 13.38C9.8052 13.38 9.74236 13.3824 9.67967 13.3872C9.16998 13.4165 8.68452 13.6145 8.29967 13.95C7.94687 14.2692 7.76687 14.6724 7.79207 15.0792C7.84607 15.9324 8.76167 16.4316 9.87407 16.3524C10.9685 16.2732 11.6981 15.642 11.6453 14.7888C11.5949 13.9872 10.8977 13.38 9.86807 13.38ZM10.9169 8.74198C10.6265 7.72198 10.1585 7.41958 9.43127 7.41958C9.35259 7.42016 9.27432 7.43105 9.19847 7.45198C8.88287 7.54198 8.63207 7.80478 8.49287 8.19598C8.35007 8.59198 8.34167 9.00478 8.46407 9.47518C8.68607 10.3164 9.28367 10.926 9.88607 10.926C9.96484 10.9267 10.0433 10.9158 10.1189 10.8936C10.7777 10.7088 11.1905 9.70318 10.9169 8.74198Z" fill="black"/>
</svg>
