<svg width="20" height="20" viewBox="0 0 20 20" fill="none" xmlns="http://www.w3.org/2000/svg">
<path d="M12.378 5.70809V3.57809C12.378 3.09809 12.908 2.84009 13.268 3.10809L13.33 3.16209L17.827 7.58209C18.037 7.78909 18.056 8.12109 17.884 8.35009L17.827 8.41509L13.33 12.8381C12.992 13.1701 12.443 12.9571 12.383 12.5041L12.378 12.4221V10.3261L12.12 10.3491C10.32 10.5421 8.594 11.3731 6.933 12.8561C6.543 13.2041 5.941 12.8761 6.005 12.3501C6.503 8.26009 8.59 6.00509 12.153 5.72309L12.378 5.70809ZM5.5 4.00009C4.83696 4.00009 4.20107 4.26348 3.73223 4.73232C3.26339 5.20116 3 5.83705 3 6.50009V14.5001C3 15.1631 3.26339 15.799 3.73223 16.2679C4.20107 16.7367 4.83696 17.0001 5.5 17.0001H13.5C14.163 17.0001 14.7989 16.7367 15.2678 16.2679C15.7366 15.799 16 15.1631 16 14.5001V13.5001C16 13.3675 15.9473 13.2403 15.8536 13.1465C15.7598 13.0528 15.6326 13.0001 15.5 13.0001C15.3674 13.0001 15.2402 13.0528 15.1464 13.1465C15.0527 13.2403 15 13.3675 15 13.5001V14.5001C15 14.8979 14.842 15.2794 14.5607 15.5608C14.2794 15.8421 13.8978 16.0001 13.5 16.0001H5.5C5.10218 16.0001 4.72064 15.8421 4.43934 15.5608C4.15804 15.2794 4 14.8979 4 14.5001V6.50009C4 6.10227 4.15804 5.72074 4.43934 5.43943C4.72064 5.15813 5.10218 5.00009 5.5 5.00009H8.5C8.63261 5.00009 8.75979 4.94741 8.85355 4.85364C8.94732 4.75988 9 4.6327 9 4.50009C9 4.36748 8.94732 4.24031 8.85355 4.14654C8.75979 4.05277 8.63261 4.00009 8.5 4.00009H5.5Z" fill="#292D33"/>
</svg>
