<svg width="20" height="20" viewBox="0 0 20 20" fill="none" xmlns="http://www.w3.org/2000/svg">
<path d="M8.44421 8.77986L9.78671 7.54986C10.1538 7.21288 10.4118 6.7739 10.5276 6.28925C10.6434 5.8046 10.6118 5.29639 10.4367 4.82986L9.86421 3.30111C9.65032 2.73038 9.22689 2.26267 8.68018 1.99326C8.13346 1.72385 7.5046 1.67302 6.92171 1.85111C4.77671 2.50736 3.12796 4.50111 3.63546 6.86861C3.96921 8.42611 4.60796 10.3811 5.81796 12.4611C7.03046 14.5461 8.41546 16.0861 9.60296 17.1686C11.3955 18.7999 13.958 18.3924 15.6067 16.8549C16.0487 16.4428 16.3168 15.8777 16.3566 15.2747C16.3963 14.6718 16.2046 14.0763 15.8205 13.6099L14.7705 12.3349C14.4538 11.9493 14.029 11.6673 13.5507 11.5252C13.0724 11.3831 12.5626 11.3873 12.0867 11.5374L10.3517 12.0836C9.90365 11.6212 9.511 11.1082 9.18171 10.5549C8.86388 9.9953 8.61618 9.39873 8.44421 8.77861V8.77986Z" fill="#292D33"/>
</svg>
