<svg width="14" height="11" viewBox="0 0 14 11" fill="none" xmlns="http://www.w3.org/2000/svg">
<path d="M13.3992 1.12747C13.6454 1.34607 13.7891 1.64755 13.7987 1.96563C13.8083 2.2837 13.683 2.59233 13.4503 2.82366L6.20814 10.0245C6.09077 10.141 5.94972 10.2342 5.79333 10.2987C5.63694 10.3631 5.46839 10.3975 5.29762 10.3997C5.12686 10.4019 4.95734 10.372 4.7991 10.3117C4.64086 10.2514 4.4971 10.1619 4.37631 10.0485L0.542227 6.44808C0.316476 6.22057 0.193576 5.91967 0.199418 5.60875C0.20526 5.29783 0.339388 5.00118 0.573544 4.78129C0.807701 4.56141 1.1236 4.43545 1.4547 4.42997C1.7858 4.42448 2.10623 4.53989 2.3485 4.75188L5.25388 7.4786L11.5929 1.17547C11.8257 0.94424 12.1467 0.809288 12.4854 0.800286C12.8242 0.791283 13.1528 0.908969 13.3992 1.12747Z" fill="#292D33"/>
</svg>
