<svg width="14" height="8" viewBox="0 0 14 8" fill="none" xmlns="http://www.w3.org/2000/svg">
<path d="M1.63954e-07 4.25014C-0.000214408 4.13735 0.0246107 4.02592 0.0726854 3.92389C0.12076 3.82186 0.190886 3.73178 0.278 3.66014L3.224 0.720137C3.36463 0.579686 3.55525 0.500796 3.754 0.500796C3.95275 0.500796 4.14338 0.579686 4.284 0.720137C4.35348 0.789598 4.4086 0.872068 4.44621 0.962834C4.48381 1.0536 4.50317 1.15089 4.50317 1.24914C4.50317 1.34738 4.48381 1.44467 4.44621 1.53544C4.4086 1.62621 4.35348 1.70867 4.284 1.77814L2.566 3.50014L13.25 3.50014C13.4489 3.50014 13.6397 3.57915 13.7803 3.71981C13.921 3.86046 14 4.05122 14 4.25014C14 4.44905 13.921 4.63981 13.7803 4.78047C13.6397 4.92112 13.4489 5.00014 13.25 5.00014L2.556 5.00014L4.289 6.72214C4.35863 6.79162 4.41388 6.87415 4.45157 6.96501C4.48927 7.05587 4.50867 7.15327 4.50867 7.25164C4.50867 7.35 4.48927 7.44741 4.45157 7.53827C4.41388 7.62912 4.35863 7.71166 4.289 7.78114C4.21935 7.85083 4.13665 7.90612 4.04562 7.94384C3.9546 7.98156 3.85703 8.00098 3.7585 8.00098C3.65997 8.00098 3.5624 7.98156 3.47138 7.94384C3.38035 7.90612 3.29765 7.85083 3.228 7.78114L0.219999 4.77714C0.149794 4.70859 0.0941278 4.62659 0.056328 4.53604C0.0185281 4.44549 -0.000629265 4.34826 1.63954e-07 4.25014Z" fill="#292D33"/>
</svg>
