<svg width="20" height="20" viewBox="0 0 20 20" fill="none" xmlns="http://www.w3.org/2000/svg">
<path d="M7.73294 4.20715C7.87698 4.07009 8.06955 3.99584 8.26832 4.00071C8.46709 4.00559 8.65579 4.08919 8.79294 4.23315L13.7939 9.48315C13.9269 9.62263 14.0011 9.80794 14.0011 10.0006C14.0011 10.1934 13.9269 10.3787 13.7939 10.5181L8.79394 15.7681C8.72605 15.8395 8.64476 15.8968 8.55472 15.9368C8.46468 15.9767 8.36765 15.9986 8.26918 16.001C8.1707 16.0035 8.0727 15.9865 7.98078 15.9511C7.88886 15.9157 7.80481 15.8625 7.73344 15.7946C7.66207 15.7268 7.60476 15.6455 7.56481 15.5554C7.52485 15.4654 7.50301 15.3684 7.50055 15.2699C7.49809 15.1714 7.51505 15.0734 7.55046 14.9815C7.58588 14.8896 7.63905 14.8055 7.70694 14.7341L12.2159 10.0001L7.70594 5.26615C7.56901 5.12197 7.49494 4.92933 7.5 4.73056C7.50506 4.53179 7.58885 4.34316 7.73294 4.20615V4.20715Z" fill="#292D33"/>
</svg>
