<svg width="20" height="20" viewBox="0 0 20 20" fill="none" xmlns="http://www.w3.org/2000/svg">
<path d="M18.0052 4.03295C18.0044 3.50546 17.7952 2.99963 17.4233 2.6256C17.0513 2.25158 16.5467 2.03964 16.0192 2.03595L11.1292 2.00395C10.8647 2.00216 10.6024 2.05286 10.3577 2.1531C10.1129 2.25335 9.89043 2.40115 9.70317 2.58795L3.02117 9.25195C2.83508 9.43757 2.68741 9.65804 2.58659 9.90076C2.48577 10.1435 2.43378 10.4037 2.43359 10.6665C2.43341 10.9294 2.48503 11.1897 2.58551 11.4325C2.68598 11.6754 2.83335 11.8961 3.01917 12.082L7.96817 17.032C8.34322 17.4069 8.85184 17.6175 9.38217 17.6175C9.9125 17.6175 10.4211 17.4069 10.7962 17.032L17.4272 10.4C17.6133 10.2139 17.7608 9.993 17.8614 9.74984C17.9619 9.50669 18.0135 9.24608 18.0132 8.98295L18.0052 4.03295ZM13.9992 6.99995C13.734 6.99995 13.4796 6.89459 13.2921 6.70706C13.1045 6.51952 12.9992 6.26517 12.9992 5.99995C12.9992 5.73474 13.1045 5.48038 13.2921 5.29285C13.4796 5.10531 13.734 4.99995 13.9992 4.99995C14.2644 4.99995 14.5187 5.10531 14.7063 5.29285C14.8938 5.48038 14.9992 5.73474 14.9992 5.99995C14.9992 6.26517 14.8938 6.51952 14.7063 6.70706C14.5187 6.89459 14.2644 6.99995 13.9992 6.99995Z" fill="#292D33"/>
</svg>
