<svg width="42" height="42" viewBox="0 0 42 42" fill="none" xmlns="http://www.w3.org/2000/svg">
<path d="M8.40039 8.4002C8.40039 7.28629 8.84289 6.218 9.63054 5.43035C10.4182 4.64269 11.4865 4.2002 12.6004 4.2002H29.4004C30.5143 4.2002 31.5826 4.64269 32.3702 5.43035C33.1579 6.218 33.6004 7.28629 33.6004 8.4002V31.5002C33.6004 32.0571 33.3791 32.5913 32.9853 32.9851C32.5915 33.3789 32.0573 33.6002 31.5004 33.6002H10.5004C10.5004 34.1571 10.7216 34.6913 11.1155 35.0851C11.5093 35.4789 12.0434 35.7002 12.6004 35.7002H32.5504C32.8289 35.7002 33.0959 35.8108 33.2929 36.0077C33.4898 36.2046 33.6004 36.4717 33.6004 36.7502C33.6004 37.0287 33.4898 37.2957 33.2929 37.4927C33.0959 37.6896 32.8289 37.8002 32.5504 37.8002H12.6004C11.4865 37.8002 10.4182 37.3577 9.63054 36.57C8.84289 35.7824 8.40039 34.7141 8.40039 33.6002V8.4002ZM17.8147 13.3247C17.065 13.7594 16.8004 14.2529 16.8004 14.7002C16.8004 15.1475 17.065 15.641 17.8147 16.0757C18.5665 16.5125 19.6858 16.8002 21.0004 16.8002C22.315 16.8002 23.4343 16.5125 24.1861 16.0757C24.9358 15.641 25.2004 15.1475 25.2004 14.7002C25.2004 14.2529 24.9358 13.7594 24.1861 13.3247C23.4343 12.8879 22.315 12.6002 21.0004 12.6002C19.6858 12.6002 18.5665 12.8879 17.8147 13.3247ZM16.7605 11.5082C15.6118 12.176 14.7004 13.2575 14.7004 14.7002V23.1002C14.7004 24.4169 15.6496 25.4837 16.7332 26.1578C17.863 26.8592 19.3708 27.3002 21.0004 27.3002C22.63 27.3002 24.1378 26.8592 25.2676 26.1578C26.3512 25.4858 27.3004 24.4169 27.3004 23.1002V14.7002C27.3004 13.2575 26.389 12.176 25.2403 11.5082C24.0916 10.8425 22.5859 10.5002 21.0004 10.5002C19.4149 10.5002 17.9092 10.8425 16.7605 11.5082ZM25.2004 23.1002V17.9132C24.058 18.5642 22.567 18.9002 21.0004 18.9002C19.4317 18.9002 17.9428 18.5642 16.8004 17.9132V23.1002C16.8004 23.3585 17.0251 23.8667 17.842 24.3749C18.6127 24.8537 19.732 25.2002 21.0004 25.2002C22.2688 25.2002 23.3881 24.8537 24.1588 24.3749C24.9757 23.8667 25.2004 23.3585 25.2004 23.1002Z" fill="#185CFF"/>
</svg>
