<svg width="24" height="24" viewBox="0 0 24 24" fill="none" xmlns="http://www.w3.org/2000/svg">
<path d="M12.3125 11.9784C12.3521 11.964 12.3941 11.9532 12.4361 11.9412C12.3296 11.7052 12.218 11.4715 12.1013 11.2404C9.84527 11.9088 7.68527 11.9148 7.30007 11.9088C7.29647 11.9388 7.29647 11.97 7.29647 12C7.29647 13.134 7.70447 14.2236 8.44607 15.0792C8.69327 14.6808 10.0037 12.726 12.3125 11.9784ZM9.14807 15.7356C9.80076 16.2358 10.5734 16.5558 11.3886 16.6636C12.2038 16.7714 13.033 16.6633 13.7933 16.35C13.5728 15.1534 13.2426 13.9796 12.8069 12.8436C10.2617 13.7436 9.30047 15.438 9.14807 15.7356ZM15.0665 8.43238C14.5118 7.95594 13.8537 7.61535 13.1444 7.43767C12.4352 7.25998 11.6942 7.25009 10.9805 7.40878C11.6067 8.25964 12.1764 9.15076 12.6857 10.0764C14.2253 9.48478 14.9213 8.63158 15.0665 8.43238ZM11.6465 10.3968C11.1293 9.48982 10.5624 8.61209 9.94847 7.76758C9.31465 8.07641 8.75797 8.52315 8.31923 9.07505C7.88049 9.62696 7.5708 10.27 7.41287 10.9572H7.43327C7.92047 10.9572 9.65207 10.9176 11.6465 10.3968ZM13.8173 12.5952C14.3753 14.1468 14.6321 15.4356 14.7053 15.8484C15.728 15.1274 16.4225 14.0297 16.6361 12.7968C16.0146 12.6203 15.3717 12.531 14.7257 12.5316C14.4161 12.5316 14.1101 12.5532 13.8173 12.5952ZM12.0005 0.47998C5.63807 0.47998 0.480469 5.63758 0.480469 12C0.480469 18.3624 5.63807 23.52 12.0005 23.52C18.3629 23.52 23.5205 18.3624 23.5205 12C23.5205 5.63758 18.3629 0.47998 12.0005 0.47998ZM12.0005 17.6364C10.5058 17.6351 9.07262 17.0409 8.01549 15.9843C6.95835 14.9276 6.36358 13.4947 6.36167 12C6.36294 10.5049 6.95743 9.07135 8.01464 8.01415C9.07184 6.95695 10.5054 6.36245 12.0005 6.36118C13.4953 6.36309 14.9283 6.95782 15.9852 8.01492C17.0421 9.07203 17.6365 10.5052 17.6381 12C17.6365 13.4946 17.042 14.9275 15.985 15.9842C14.9281 17.0409 13.4951 17.6351 12.0005 17.6364ZM13.1069 10.8888C13.2113 11.1048 13.3085 11.3172 13.3973 11.526L13.4825 11.73C13.8149 11.6904 14.1701 11.6712 14.5409 11.6712C15.2661 11.6726 15.9897 11.7417 16.7021 11.8776C16.6747 10.8555 16.3159 9.87 15.6797 9.06958C15.4877 9.31678 14.6981 10.2252 13.1069 10.8888Z" fill="black"/>
</svg>
