<svg width="42" height="42" viewBox="0 0 42 42" fill="none" xmlns="http://www.w3.org/2000/svg">
<path d="M17.9375 7.4375C18.2856 7.4375 18.6194 7.57578 18.8656 7.82192C19.1117 8.06806 19.25 8.4019 19.25 8.75V22.75H33.25C33.5672 22.75 33.8736 22.8649 34.1126 23.0733C34.3517 23.2818 34.5071 23.5698 34.5503 23.884L34.5625 24.0625C34.5625 32.76 27.51 38.9375 18.8125 38.9375C14.6353 38.9375 10.6293 37.2781 7.67557 34.3244C4.72187 31.3707 3.0625 27.3647 3.0625 23.1875C3.0625 14.49 9.24 7.4375 17.9375 7.4375ZM23.1875 3.0625C27.3647 3.0625 31.3707 4.72187 34.3244 7.67557C37.2781 10.6293 38.9375 14.6353 38.9375 18.8125C38.9375 19.1606 38.7992 19.4944 38.5531 19.7406C38.3069 19.9867 37.9731 20.125 37.625 20.125H23.1875C22.8394 20.125 22.5056 19.9867 22.2594 19.7406C22.0133 19.4944 21.875 19.1606 21.875 18.8125V4.375C21.875 4.0269 22.0133 3.69306 22.2594 3.44692C22.5056 3.20078 22.8394 3.0625 23.1875 3.0625Z" fill="#185CFF"/>
</svg>
