<svg width="42" height="42" viewBox="0 0 42 42" fill="none" xmlns="http://www.w3.org/2000/svg">
<path d="M29.3991 5.7752C29.3991 5.35748 29.565 4.95687 29.8604 4.6615C30.1557 4.36613 30.5563 4.2002 30.9741 4.2002H36.2241C36.6418 4.2002 37.0424 4.36613 37.3377 4.6615C37.6331 4.95687 37.7991 5.35748 37.7991 5.7752V11.0252C37.7991 11.4429 37.6331 11.8435 37.3377 12.1389C37.0424 12.4343 36.6418 12.6002 36.2241 12.6002C35.8063 12.6002 35.4057 12.4343 35.1104 12.1389C34.815 11.8435 34.6491 11.4429 34.6491 11.0252V9.57619L25.2621 18.9632C24.9667 19.2581 24.5664 19.4238 24.1491 19.4238C23.7317 19.4238 23.3314 19.2581 23.0361 18.9632L17.8491 13.7762L8.98705 22.6382C8.84286 22.7929 8.66898 22.9171 8.47578 23.0031C8.28258 23.0892 8.07403 23.1355 7.86255 23.1392C7.65107 23.143 7.44101 23.1041 7.2449 23.0249C7.04878 22.9456 6.87063 22.8277 6.72107 22.6782C6.57151 22.5286 6.45361 22.3505 6.3744 22.1544C6.29518 21.9582 6.25628 21.7482 6.26001 21.5367C6.26374 21.3252 6.31003 21.1167 6.39611 20.9235C6.4822 20.7303 6.60631 20.5564 6.76105 20.4122L16.7361 10.4372C17.0314 10.1422 17.4317 9.97658 17.8491 9.97658C18.2664 9.97658 18.6667 10.1422 18.9621 10.4372L24.1491 15.6242L32.423 7.3502H30.9741C30.5563 7.3502 30.1557 7.18426 29.8604 6.88889C29.565 6.59352 29.3991 6.19291 29.3991 5.7752ZM7.87405 29.4002C8.29177 29.4002 8.69238 29.5661 8.98775 29.8615C9.28312 30.1569 9.44905 30.5575 9.44905 30.9752V36.2252C9.44905 36.6429 9.28312 37.0435 8.98775 37.3389C8.69238 37.6343 8.29177 37.8002 7.87405 37.8002C7.45634 37.8002 7.05573 37.6343 6.76036 37.3389C6.46499 37.0435 6.29905 36.6429 6.29905 36.2252V30.9752C6.29905 30.5575 6.46499 30.1569 6.76036 29.8615C7.05573 29.5661 7.45634 29.4002 7.87405 29.4002ZM17.8491 24.6752C17.8491 24.2575 17.6831 23.8569 17.3877 23.5615C17.0924 23.2661 16.6918 23.1002 16.2741 23.1002C15.8563 23.1002 15.4557 23.2661 15.1604 23.5615C14.865 23.8569 14.6991 24.2575 14.6991 24.6752V36.2252C14.6991 36.6429 14.865 37.0435 15.1604 37.3389C15.4557 37.6343 15.8563 37.8002 16.2741 37.8002C16.6918 37.8002 17.0924 37.6343 17.3877 37.3389C17.6831 37.0435 17.8491 36.6429 17.8491 36.2252V24.6752ZM24.6741 27.3002C25.0918 27.3002 25.4924 27.4661 25.7877 27.7615C26.0831 28.0569 26.2491 28.4575 26.2491 28.8752V36.2252C26.2491 36.6429 26.0831 37.0435 25.7877 37.3389C25.4924 37.6343 25.0918 37.8002 24.6741 37.8002C24.2563 37.8002 23.8557 37.6343 23.5604 37.3389C23.265 37.0435 23.0991 36.6429 23.0991 36.2252V28.8752C23.0991 28.4575 23.265 28.0569 23.5604 27.7615C23.8557 27.4661 24.2563 27.3002 24.6741 27.3002ZM34.6491 20.4752C34.6491 20.0575 34.4831 19.6569 34.1877 19.3615C33.8924 19.0661 33.4918 18.9002 33.0741 18.9002C32.6563 18.9002 32.2557 19.0661 31.9604 19.3615C31.665 19.6569 31.4991 20.0575 31.4991 20.4752V36.2252C31.4991 36.6429 31.665 37.0435 31.9604 37.3389C32.2557 37.6343 32.6563 37.8002 33.0741 37.8002C33.4918 37.8002 33.8924 37.6343 34.1877 37.3389C34.4831 37.0435 34.6491 36.6429 34.6491 36.2252V20.4752Z" fill="#185CFF"/>
</svg>
