<svg width="20" height="20" viewBox="0 0 20 20" fill="none" xmlns="http://www.w3.org/2000/svg">
<path d="M17.9996 5.49999C17.9997 5.90992 17.899 6.31359 17.7064 6.67544C17.5138 7.03729 17.2351 7.34622 16.895 7.57502C16.5548 7.80382 16.1637 7.94547 15.7559 7.98749C15.3481 8.02951 14.9363 7.97062 14.5566 7.81599L13.2746 9.73899C13.5184 9.98527 13.7083 10.2795 13.8323 10.6031C13.9563 10.9267 14.0117 11.2725 13.9949 11.6186C13.9781 11.9648 13.8896 12.3036 13.7349 12.6137C13.5802 12.9238 13.3627 13.1983 13.0963 13.4199C12.8299 13.6414 12.5203 13.8052 12.1872 13.9008C11.8541 13.9963 11.5048 14.0216 11.1614 13.9749C10.818 13.9283 10.4881 13.8108 10.1926 13.6299C9.89702 13.449 9.64231 13.2086 9.44461 12.924L6.94861 13.994C7.07357 14.6008 6.9688 15.2323 6.6546 15.7662C6.3404 16.3001 5.83915 16.6984 5.24803 16.8837C4.65691 17.0691 4.01802 17.0284 3.45521 16.7695C2.8924 16.5106 2.44576 16.0519 2.20188 15.4825C1.958 14.913 1.93424 14.2732 2.13521 13.6872C2.33618 13.1012 2.74757 12.6107 3.28962 12.3108C3.83168 12.0109 4.46579 11.9229 5.06903 12.0639C5.67227 12.2049 6.20168 12.5649 6.55461 13.074L9.05061 12.005C8.95869 11.5612 8.98914 11.1007 9.13871 10.6729C9.28828 10.2451 9.55134 9.86594 9.89975 9.57608C10.2482 9.28621 10.6688 9.09651 11.1167 9.02728C11.5646 8.95804 12.0229 9.01186 12.4426 9.18299L13.7246 7.26099C13.4354 6.96942 13.2225 6.61108 13.1047 6.21767C12.9869 5.82426 12.9678 5.40788 13.0491 5.00535C13.1305 4.60281 13.3097 4.22651 13.571 3.9097C13.8324 3.5929 14.1677 3.34535 14.5474 3.18893C14.9271 3.03251 15.3395 2.97205 15.7482 3.01288C16.1568 3.05371 16.5491 3.19458 16.8904 3.42303C17.2316 3.65149 17.5113 3.9605 17.7048 4.32274C17.8983 4.68499 17.9995 5.08932 17.9996 5.49999Z" fill="#292D33"/>
</svg>
