<svg width="14" height="8" viewBox="0 0 14 8" fill="none" xmlns="http://www.w3.org/2000/svg">
<path d="M1.00012 6.82511C1.08383 6.91541 1.18451 6.98833 1.2964 7.03971C1.4083 7.09109 1.52922 7.11992 1.65226 7.12456C1.7753 7.12921 1.89805 7.10957 2.0135 7.06677C2.12895 7.02397 2.23484 6.95884 2.32512 6.87511L7.00012 2.46636L11.6751 6.87511C11.7654 6.95883 11.8713 7.02395 11.9867 7.06674C12.1022 7.10954 12.2249 7.12917 12.348 7.12453C12.471 7.11989 12.5919 7.09106 12.7038 7.03968C12.8157 6.98831 12.9164 6.9154 13.0001 6.82511C13.0838 6.73483 13.149 6.62894 13.1917 6.51349C13.2345 6.39804 13.2542 6.2753 13.2495 6.15226C13.2449 6.02922 13.2161 5.9083 13.1647 5.79641C13.1133 5.68451 13.0404 5.58383 12.9501 5.50011L7.63762 0.500114C7.46426 0.339337 7.23655 0.25 7.00012 0.25C6.76368 0.25 6.53598 0.339337 6.36262 0.500114L1.05012 5.50011C0.959824 5.58383 0.886905 5.6845 0.835525 5.7964C0.784145 5.9083 0.75531 6.02922 0.750667 6.15226C0.746024 6.2753 0.765664 6.39805 0.808465 6.5135C0.851266 6.62895 0.91639 6.73484 1.00012 6.82511Z" fill="#9497A1"/>
</svg>
