<svg width="42" height="42" viewBox="0 0 42 42" fill="none" xmlns="http://www.w3.org/2000/svg">
<path d="M17.8504 4.2002C17.1987 4.19985 16.563 4.40164 16.0308 4.77775C15.4986 5.15387 15.0961 5.68578 14.8789 6.3002H11.5504C10.715 6.3002 9.91374 6.63207 9.323 7.22281C8.73226 7.81355 8.40039 8.61476 8.40039 9.4502V34.6502C8.40039 35.4856 8.73226 36.2868 9.323 36.8776C9.91374 37.4683 10.715 37.8002 11.5504 37.8002H30.4504C31.2858 37.8002 32.087 37.4683 32.6778 36.8776C33.2685 36.2868 33.6004 35.4856 33.6004 34.6502V9.4502C33.6004 8.61476 33.2685 7.81355 32.6778 7.22281C32.087 6.63207 31.2858 6.3002 30.4504 6.3002H27.1219C26.9047 5.68578 26.5022 5.15387 25.97 4.77775C25.4378 4.40164 24.8021 4.19985 24.1504 4.2002H17.8504ZM16.8004 7.3502C16.8004 7.07172 16.911 6.80465 17.1079 6.60773C17.3048 6.41082 17.5719 6.3002 17.8504 6.3002H24.1504C24.4289 6.3002 24.6959 6.41082 24.8929 6.60773C25.0898 6.80465 25.2004 7.07172 25.2004 7.3502C25.2004 7.62867 25.0898 7.89574 24.8929 8.09266C24.6959 8.28957 24.4289 8.4002 24.1504 8.4002H17.8504C17.5719 8.4002 17.3048 8.28957 17.1079 8.09266C16.911 7.89574 16.8004 7.62867 16.8004 7.3502ZM27.3004 25.2002V30.4502C27.3004 30.7287 27.1898 30.9957 26.9929 31.1927C26.7959 31.3896 26.5289 31.5002 26.2504 31.5002C25.9719 31.5002 25.7048 31.3896 25.5079 31.1927C25.311 30.9957 25.2004 30.7287 25.2004 30.4502V25.2002C25.2004 24.9217 25.311 24.6546 25.5079 24.4577C25.7048 24.2608 25.9719 24.1502 26.2504 24.1502C26.5289 24.1502 26.7959 24.2608 26.9929 24.4577C27.1898 24.6546 27.3004 24.9217 27.3004 25.2002ZM21.0004 18.9002C21.2789 18.9002 21.5459 19.0108 21.7429 19.2077C21.9398 19.4046 22.0504 19.6717 22.0504 19.9502V30.4502C22.0504 30.7287 21.9398 30.9957 21.7429 31.1927C21.5459 31.3896 21.2789 31.5002 21.0004 31.5002C20.7219 31.5002 20.4548 31.3896 20.2579 31.1927C20.061 30.9957 19.9504 30.7287 19.9504 30.4502V19.9502C19.9504 19.6717 20.061 19.4046 20.2579 19.2077C20.4548 19.0108 20.7219 18.9002 21.0004 18.9002ZM16.8004 15.7502V30.4502C16.8004 30.7287 16.6898 30.9957 16.4929 31.1927C16.2959 31.3896 16.0289 31.5002 15.7504 31.5002C15.4719 31.5002 15.2048 31.3896 15.0079 31.1927C14.811 30.9957 14.7004 30.7287 14.7004 30.4502V15.7502C14.7004 15.4717 14.811 15.2046 15.0079 15.0077C15.2048 14.8108 15.4719 14.7002 15.7504 14.7002C16.0289 14.7002 16.2959 14.8108 16.4929 15.0077C16.6898 15.2046 16.8004 15.4717 16.8004 15.7502Z" fill="#185CFF"/>
</svg>
