<svg width="42" height="42" viewBox="0 0 42 42" fill="none" xmlns="http://www.w3.org/2000/svg">
<path d="M37.7992 8.4001C37.7992 11.8798 32.1586 14.7001 25.1992 14.7001C18.2398 14.7001 12.5992 11.8798 12.5992 8.4001C12.5992 4.9204 18.2398 2.1001 25.1992 2.1001C32.1586 2.1001 37.7992 4.9204 37.7992 8.4001ZM37.7992 12.8521C36.9949 13.6123 36.0352 14.2402 35.0482 14.7337C32.419 16.0483 28.933 16.8001 25.1992 16.8001C23.8909 16.8001 22.6162 16.7077 21.3961 16.5313C23.3596 17.6401 25.0165 19.3474 25.1845 21.6595L25.2055 21.6427L25.1992 26.3614V34.6501C25.1992 35.0155 25.1614 35.3641 25.0921 35.7001H25.1992C32.1586 35.7001 37.7992 32.8798 37.7992 29.4001V12.8521ZM15.3502 14.7337L15.4552 14.7862C14.506 14.6959 13.5513 14.677 12.5992 14.7295V12.8521C13.4035 13.6123 14.3632 14.2402 15.3502 14.7337ZM18.8992 17.6821C18.1356 17.4018 17.3485 17.1903 16.5472 17.05C15.5905 16.8816 14.6207 16.798 13.6492 16.8001C8.43072 16.8001 4.19922 19.1521 4.19922 22.0501C4.19922 24.9481 8.43072 27.3001 13.6492 27.3001C18.8677 27.3001 23.0992 24.9481 23.0992 22.0501C23.0992 20.2294 21.4318 18.6271 18.8992 17.6821ZM21.352 27.5941C19.273 28.7491 16.5472 29.398 13.6492 29.398C10.7512 29.398 8.02332 28.7491 5.94642 27.5962C5.31979 27.2519 4.73373 26.8384 4.19922 26.3635V34.648C4.19922 37.5481 8.43072 39.9001 13.6492 39.9001C18.8677 39.9001 23.0992 37.5481 23.0992 34.6501L23.1013 26.3635C22.5665 26.8402 21.9797 27.2551 21.352 27.6004V27.5941Z" fill="#185CFF"/>
</svg>
