<svg width="42" height="42" viewBox="0 0 42 42" fill="none" xmlns="http://www.w3.org/2000/svg">
<path d="M10.5004 4.2002C10.2219 4.2002 9.95484 4.31082 9.75793 4.50773C9.56102 4.70465 9.45039 4.97172 9.45039 5.2502C9.45039 5.52867 9.56102 5.79574 9.75793 5.99266C9.95484 6.18957 10.2219 6.3002 10.5004 6.3002H12.6004V8.4002H11.5504C10.715 8.4002 9.91374 8.73207 9.323 9.32281C8.73226 9.91355 8.40039 10.7148 8.40039 11.5502V21.0002H18.9004V11.5502C18.9004 10.7148 18.5685 9.91355 17.9778 9.32281C17.387 8.73207 16.5858 8.4002 15.7504 8.4002H14.7004V6.3002H16.8004C17.0789 6.3002 17.3459 6.18957 17.5429 5.99266C17.7398 5.79574 17.8504 5.52867 17.8504 5.2502C17.8504 4.97172 17.7398 4.70465 17.5429 4.50773C17.3459 4.31082 17.0789 4.2002 16.8004 4.2002H10.5004ZM25.2004 8.4002C24.9219 8.4002 24.6548 8.51082 24.4579 8.70773C24.261 8.90465 24.1504 9.17172 24.1504 9.4502C24.1504 9.72867 24.261 9.99574 24.4579 10.1927C24.6548 10.3896 24.9219 10.5002 25.2004 10.5002H27.3004V12.6002H26.2504C25.415 12.6002 24.6137 12.9321 24.023 13.5228C23.4323 14.1135 23.1004 14.9148 23.1004 15.7502V18.9002H33.6004V15.7502C33.6004 14.9148 33.2685 14.1135 32.6778 13.5228C32.087 12.9321 31.2858 12.6002 30.4504 12.6002H29.4004V10.5002H31.5004C31.7789 10.5002 32.0459 10.3896 32.2429 10.1927C32.4398 9.99574 32.5504 9.72867 32.5504 9.4502C32.5504 9.17172 32.4398 8.90465 32.2429 8.70773C32.0459 8.51082 31.7789 8.4002 31.5004 8.4002H25.2004ZM9.45039 32.5502C9.45039 32.8287 9.56102 33.0957 9.75793 33.2927C9.95484 33.4896 10.2219 33.6002 10.5004 33.6002H16.8004C17.0789 33.6002 17.3459 33.4896 17.5429 33.2927C17.7398 33.0957 17.8504 32.8287 17.8504 32.5502C17.8504 32.2717 17.7398 32.0046 17.5429 31.8077C17.3459 31.6108 17.0789 31.5002 16.8004 31.5002H14.7004V29.4002H15.7504C16.5858 29.4002 17.387 29.0683 17.9778 28.4776C18.5685 27.8868 18.9004 27.0856 18.9004 26.2502V23.1002H8.40039V26.2502C8.40039 27.0856 8.73226 27.8868 9.323 28.4776C9.91374 29.0683 10.715 29.4002 11.5504 29.4002H12.6004V31.5002H10.5004C10.2219 31.5002 9.95484 31.6108 9.75793 31.8077C9.56102 32.0046 9.45039 32.2717 9.45039 32.5502ZM25.2004 37.8002C24.9219 37.8002 24.6548 37.6896 24.4579 37.4927C24.261 37.2957 24.1504 37.0287 24.1504 36.7502C24.1504 36.4717 24.261 36.2046 24.4579 36.0077C24.6548 35.8108 24.9219 35.7002 25.2004 35.7002H27.3004V33.6002H26.2504C25.415 33.6002 24.6137 33.2683 24.023 32.6776C23.4323 32.0868 23.1004 31.2856 23.1004 30.4502V21.0002H33.6004V30.4502C33.6004 31.2856 33.2685 32.0868 32.6778 32.6776C32.087 33.2683 31.2858 33.6002 30.4504 33.6002H29.4004V35.7002H31.5004C31.7789 35.7002 32.0459 35.8108 32.2429 36.0077C32.4398 36.2046 32.5504 36.4717 32.5504 36.7502C32.5504 37.0287 32.4398 37.2957 32.2429 37.4927C32.0459 37.6896 31.7789 37.8002 31.5004 37.8002H25.2004Z" fill="#185CFF"/>
</svg>
